<?xml version="1.0" encoding="UTF-8"?>
<svg xmlns="http://www.w3.org/2000/svg" xmlns:xlink="http://www.w3.org/1999/xlink" width="854" height="480" viewBox="0 0 854 480">
<defs>
<g>
<g id="glyph-0-0">
<path d="M 0.03125 0 L 0.03125 -0.34375 L 0.109375 -0.34375 C 0.222656 -0.34375 0.316406 -0.367188 0.390625 -0.421875 C 0.472656 -0.484375 0.546875 -0.613281 0.609375 -0.8125 L 2 -4.5625 L 2.875 -4.5625 L 4.21875 -0.796875 C 4.28125 -0.617188 4.347656 -0.5 4.421875 -0.4375 C 4.503906 -0.375 4.597656 -0.34375 4.703125 -0.34375 L 4.8125 -0.34375 L 4.8125 0 L 2.703125 0 L 2.703125 -0.34375 L 2.953125 -0.34375 C 3.015625 -0.34375 3.078125 -0.359375 3.140625 -0.390625 C 3.203125 -0.429688 3.234375 -0.5 3.234375 -0.59375 C 3.234375 -0.644531 3.222656 -0.691406 3.203125 -0.734375 C 3.191406 -0.785156 3.179688 -0.828125 3.171875 -0.859375 L 2.953125 -1.5 L 1.390625 -1.5 L 1.203125 -0.953125 C 1.191406 -0.898438 1.175781 -0.835938 1.15625 -0.765625 C 1.132812 -0.703125 1.125 -0.644531 1.125 -0.59375 C 1.125 -0.507812 1.15625 -0.445312 1.21875 -0.40625 C 1.28125 -0.363281 1.347656 -0.34375 1.421875 -0.34375 L 1.6875 -0.34375 L 1.6875 0 Z M 1.53125 -1.890625 L 2.8125 -1.890625 L 2.484375 -2.9375 C 2.441406 -3.082031 2.390625 -3.242188 2.328125 -3.421875 C 2.273438 -3.597656 2.234375 -3.765625 2.203125 -3.921875 C 2.160156 -3.785156 2.113281 -3.628906 2.0625 -3.453125 C 2.007812 -3.273438 1.957031 -3.113281 1.90625 -2.96875 Z "/>
</g>
<g id="glyph-0-1">
<path d="M 1.890625 0.0625 C 1.578125 0.0625 1.300781 0.00390625 1.0625 -0.109375 C 0.820312 -0.222656 0.632812 -0.40625 0.5 -0.65625 C 0.363281 -0.914062 0.296875 -1.265625 0.296875 -1.703125 C 0.296875 -2.160156 0.363281 -2.519531 0.5 -2.78125 C 0.644531 -3.039062 0.832031 -3.226562 1.0625 -3.34375 C 1.300781 -3.457031 1.566406 -3.515625 1.859375 -3.515625 C 2.273438 -3.515625 2.585938 -3.445312 2.796875 -3.3125 C 3.015625 -3.1875 3.125 -3.03125 3.125 -2.84375 C 3.125 -2.75 3.101562 -2.660156 3.0625 -2.578125 C 3.019531 -2.492188 2.9375 -2.425781 2.8125 -2.375 C 2.695312 -2.320312 2.53125 -2.296875 2.3125 -2.296875 C 2.3125 -2.441406 2.296875 -2.578125 2.265625 -2.703125 C 2.242188 -2.828125 2.203125 -2.925781 2.140625 -3 C 2.078125 -3.082031 1.992188 -3.125 1.890625 -3.125 C 1.765625 -3.125 1.65625 -3.082031 1.5625 -3 C 1.476562 -2.914062 1.410156 -2.769531 1.359375 -2.5625 C 1.304688 -2.351562 1.28125 -2.066406 1.28125 -1.703125 C 1.28125 -1.273438 1.335938 -0.953125 1.453125 -0.734375 C 1.578125 -0.523438 1.773438 -0.421875 2.046875 -0.421875 C 2.265625 -0.421875 2.453125 -0.46875 2.609375 -0.5625 C 2.773438 -0.664062 2.894531 -0.789062 2.96875 -0.9375 C 3.019531 -0.90625 3.054688 -0.863281 3.078125 -0.8125 C 3.109375 -0.757812 3.125 -0.703125 3.125 -0.640625 C 3.125 -0.535156 3.078125 -0.425781 2.984375 -0.3125 C 2.898438 -0.207031 2.765625 -0.117188 2.578125 -0.046875 C 2.398438 0.0234375 2.171875 0.0625 1.890625 0.0625 Z "/>
</g>
<g id="glyph-0-2">
<path d="M 1.09375 -4 C 0.9375 -4 0.804688 -4.035156 0.703125 -4.109375 C 0.597656 -4.179688 0.546875 -4.296875 0.546875 -4.453125 C 0.546875 -4.617188 0.597656 -4.738281 0.703125 -4.8125 C 0.804688 -4.882812 0.9375 -4.921875 1.09375 -4.921875 C 1.238281 -4.921875 1.363281 -4.882812 1.46875 -4.8125 C 1.582031 -4.738281 1.640625 -4.617188 1.640625 -4.453125 C 1.640625 -4.296875 1.582031 -4.179688 1.46875 -4.109375 C 1.363281 -4.035156 1.238281 -4 1.09375 -4 Z M 0.109375 0 L 0.109375 -0.34375 L 0.1875 -0.34375 C 0.25 -0.34375 0.3125 -0.347656 0.375 -0.359375 C 0.445312 -0.378906 0.507812 -0.421875 0.5625 -0.484375 C 0.613281 -0.546875 0.640625 -0.632812 0.640625 -0.75 L 0.640625 -2.703125 C 0.640625 -2.816406 0.613281 -2.898438 0.5625 -2.953125 C 0.507812 -3.003906 0.445312 -3.039062 0.375 -3.0625 C 0.3125 -3.082031 0.25 -3.09375 0.1875 -3.09375 L 0.109375 -3.09375 L 0.109375 -3.421875 L 1.609375 -3.421875 L 1.609375 -0.75 C 1.609375 -0.632812 1.628906 -0.546875 1.671875 -0.484375 C 1.722656 -0.421875 1.785156 -0.378906 1.859375 -0.359375 C 1.929688 -0.347656 2 -0.34375 2.0625 -0.34375 L 2.140625 -0.34375 L 2.140625 0 Z "/>
</g>
<g id="glyph-0-3">
<path d="M 1.953125 0.0625 C 1.441406 0.0625 1.035156 -0.0820312 0.734375 -0.375 C 0.441406 -0.675781 0.296875 -1.125 0.296875 -1.71875 C 0.296875 -2.320312 0.4375 -2.769531 0.71875 -3.0625 C 1 -3.363281 1.414062 -3.515625 1.96875 -3.515625 C 2.476562 -3.515625 2.878906 -3.363281 3.171875 -3.0625 C 3.460938 -2.769531 3.609375 -2.320312 3.609375 -1.71875 C 3.609375 -1.125 3.46875 -0.675781 3.1875 -0.375 C 2.90625 -0.0820312 2.492188 0.0625 1.953125 0.0625 Z M 1.96875 -0.34375 C 2.207031 -0.34375 2.375 -0.457031 2.46875 -0.6875 C 2.570312 -0.925781 2.625 -1.269531 2.625 -1.71875 C 2.625 -2.175781 2.570312 -2.519531 2.46875 -2.75 C 2.375 -2.976562 2.203125 -3.09375 1.953125 -3.09375 C 1.703125 -3.09375 1.53125 -2.976562 1.4375 -2.75 C 1.34375 -2.519531 1.296875 -2.175781 1.296875 -1.71875 C 1.296875 -1.269531 1.34375 -0.925781 1.4375 -0.6875 C 1.539062 -0.457031 1.71875 -0.34375 1.96875 -0.34375 Z M 1.5625 -3.953125 C 1.625 -4.035156 1.695312 -4.128906 1.78125 -4.234375 C 1.863281 -4.347656 1.941406 -4.460938 2.015625 -4.578125 C 2.085938 -4.691406 2.144531 -4.796875 2.1875 -4.890625 L 3.1875 -4.890625 L 3.1875 -4.828125 C 3.15625 -4.773438 3.09375 -4.707031 3 -4.625 C 2.90625 -4.539062 2.800781 -4.453125 2.6875 -4.359375 C 2.570312 -4.265625 2.453125 -4.175781 2.328125 -4.09375 C 2.210938 -4.007812 2.101562 -3.9375 2 -3.875 L 1.5625 -3.875 Z "/>
</g>
<g id="glyph-0-4">
<path d="M 0.125 0 L 0.125 -0.34375 L 0.140625 -0.34375 C 0.285156 -0.34375 0.40625 -0.363281 0.5 -0.40625 C 0.59375 -0.457031 0.640625 -0.582031 0.640625 -0.78125 L 0.640625 -2.671875 C 0.640625 -2.847656 0.597656 -2.960938 0.515625 -3.015625 C 0.429688 -3.066406 0.316406 -3.09375 0.171875 -3.09375 L 0.15625 -3.09375 L 0.15625 -3.421875 L 1.5 -3.421875 L 1.578125 -2.96875 L 1.609375 -2.96875 C 1.703125 -3.132812 1.796875 -3.253906 1.890625 -3.328125 C 1.992188 -3.398438 2.101562 -3.445312 2.21875 -3.46875 C 2.332031 -3.5 2.457031 -3.515625 2.59375 -3.515625 C 2.925781 -3.515625 3.1875 -3.414062 3.375 -3.21875 C 3.5625 -3.019531 3.65625 -2.707031 3.65625 -2.28125 L 3.65625 -0.796875 C 3.65625 -0.597656 3.6875 -0.472656 3.75 -0.421875 C 3.820312 -0.367188 3.929688 -0.34375 4.078125 -0.34375 L 4.09375 -0.34375 L 4.09375 0 L 2.671875 0 L 2.671875 -2.109375 C 2.671875 -2.378906 2.632812 -2.585938 2.5625 -2.734375 C 2.488281 -2.890625 2.359375 -2.96875 2.171875 -2.96875 C 2.023438 -2.96875 1.910156 -2.921875 1.828125 -2.828125 C 1.753906 -2.734375 1.695312 -2.609375 1.65625 -2.453125 C 1.625 -2.304688 1.609375 -2.144531 1.609375 -1.96875 L 1.609375 -0.75 C 1.609375 -0.570312 1.648438 -0.457031 1.734375 -0.40625 C 1.816406 -0.363281 1.929688 -0.34375 2.078125 -0.34375 L 2.09375 -0.34375 L 2.09375 0 Z "/>
</g>
<g id="glyph-0-5">
<path d="M 0.96875 -2.453125 C 0.820312 -2.453125 0.695312 -2.488281 0.59375 -2.5625 C 0.5 -2.644531 0.453125 -2.78125 0.453125 -2.96875 C 0.453125 -3.164062 0.5 -3.300781 0.59375 -3.375 C 0.695312 -3.445312 0.820312 -3.484375 0.96875 -3.484375 C 1.113281 -3.484375 1.238281 -3.445312 1.34375 -3.375 C 1.445312 -3.300781 1.5 -3.164062 1.5 -2.96875 C 1.5 -2.78125 1.445312 -2.644531 1.34375 -2.5625 C 1.238281 -2.488281 1.113281 -2.453125 0.96875 -2.453125 Z M 0.96875 0.046875 C 0.820312 0.046875 0.695312 0.0078125 0.59375 -0.0625 C 0.5 -0.132812 0.453125 -0.265625 0.453125 -0.453125 C 0.453125 -0.648438 0.5 -0.785156 0.59375 -0.859375 C 0.695312 -0.929688 0.820312 -0.96875 0.96875 -0.96875 C 1.113281 -0.96875 1.238281 -0.929688 1.34375 -0.859375 C 1.445312 -0.785156 1.5 -0.648438 1.5 -0.453125 C 1.5 -0.265625 1.445312 -0.132812 1.34375 -0.0625 C 1.238281 0.0078125 1.113281 0.046875 0.96875 0.046875 Z "/>
</g>
<g id="glyph-0-6">
</g>
<g id="glyph-0-7">
<path d="M 2.53125 0.0625 C 2.289062 0.0625 2.09375 0.0078125 1.9375 -0.09375 C 1.78125 -0.195312 1.65625 -0.332031 1.5625 -0.5 L 1.5 -0.5 L 1.328125 0 L 0.109375 0 L 0.109375 -0.34375 L 0.15625 -0.34375 C 0.238281 -0.34375 0.316406 -0.351562 0.390625 -0.375 C 0.460938 -0.394531 0.519531 -0.4375 0.5625 -0.5 C 0.613281 -0.5625 0.640625 -0.65625 0.640625 -0.78125 L 0.640625 -4.09375 C 0.640625 -4.269531 0.585938 -4.382812 0.484375 -4.4375 C 0.390625 -4.488281 0.273438 -4.515625 0.140625 -4.515625 L 0.109375 -4.515625 L 0.109375 -4.859375 L 1.609375 -4.859375 L 1.609375 -3.765625 C 1.609375 -3.703125 1.601562 -3.617188 1.59375 -3.515625 C 1.59375 -3.421875 1.585938 -3.328125 1.578125 -3.234375 C 1.578125 -3.140625 1.570312 -3.054688 1.5625 -2.984375 L 1.609375 -2.984375 C 1.703125 -3.148438 1.820312 -3.273438 1.96875 -3.359375 C 2.125 -3.453125 2.320312 -3.5 2.5625 -3.5 C 2.976562 -3.5 3.296875 -3.359375 3.515625 -3.078125 C 3.734375 -2.796875 3.84375 -2.34375 3.84375 -1.71875 C 3.84375 -1.101562 3.726562 -0.648438 3.5 -0.359375 C 3.28125 -0.078125 2.957031 0.0625 2.53125 0.0625 Z M 2.265625 -0.421875 C 2.484375 -0.421875 2.632812 -0.53125 2.71875 -0.75 C 2.8125 -0.976562 2.859375 -1.304688 2.859375 -1.734375 C 2.859375 -2.171875 2.8125 -2.492188 2.71875 -2.703125 C 2.625 -2.921875 2.472656 -3.03125 2.265625 -3.03125 C 2.015625 -3.03125 1.84375 -2.921875 1.75 -2.703125 C 1.65625 -2.492188 1.609375 -2.164062 1.609375 -1.71875 C 1.609375 -1.300781 1.65625 -0.976562 1.75 -0.75 C 1.84375 -0.53125 2.015625 -0.421875 2.265625 -0.421875 Z "/>
</g>
<g id="glyph-0-8">
<path d="M 0.109375 0 L 0.109375 -0.34375 L 0.1875 -0.34375 C 0.25 -0.34375 0.3125 -0.347656 0.375 -0.359375 C 0.445312 -0.378906 0.507812 -0.421875 0.5625 -0.484375 C 0.613281 -0.546875 0.640625 -0.632812 0.640625 -0.75 L 0.640625 -4.125 C 0.640625 -4.238281 0.613281 -4.320312 0.5625 -4.375 C 0.507812 -4.4375 0.445312 -4.472656 0.375 -4.484375 C 0.3125 -4.503906 0.25 -4.515625 0.1875 -4.515625 L 0.109375 -4.515625 L 0.109375 -4.859375 L 1.609375 -4.859375 L 1.609375 -0.75 C 1.609375 -0.632812 1.628906 -0.546875 1.671875 -0.484375 C 1.722656 -0.421875 1.785156 -0.378906 1.859375 -0.359375 C 1.929688 -0.347656 2 -0.34375 2.0625 -0.34375 L 2.140625 -0.34375 L 2.140625 0 Z "/>
</g>
<g id="glyph-0-9">
<path d="M 1.953125 0.0625 C 1.441406 0.0625 1.035156 -0.0820312 0.734375 -0.375 C 0.441406 -0.675781 0.296875 -1.125 0.296875 -1.71875 C 0.296875 -2.320312 0.4375 -2.769531 0.71875 -3.0625 C 1 -3.363281 1.414062 -3.515625 1.96875 -3.515625 C 2.476562 -3.515625 2.878906 -3.363281 3.171875 -3.0625 C 3.460938 -2.769531 3.609375 -2.320312 3.609375 -1.71875 C 3.609375 -1.125 3.46875 -0.675781 3.1875 -0.375 C 2.90625 -0.0820312 2.492188 0.0625 1.953125 0.0625 Z M 1.96875 -0.34375 C 2.207031 -0.34375 2.375 -0.457031 2.46875 -0.6875 C 2.570312 -0.925781 2.625 -1.269531 2.625 -1.71875 C 2.625 -2.175781 2.570312 -2.519531 2.46875 -2.75 C 2.375 -2.976562 2.203125 -3.09375 1.953125 -3.09375 C 1.703125 -3.09375 1.53125 -2.976562 1.4375 -2.75 C 1.34375 -2.519531 1.296875 -2.175781 1.296875 -1.71875 C 1.296875 -1.269531 1.34375 -0.925781 1.4375 -0.6875 C 1.539062 -0.457031 1.71875 -0.34375 1.96875 -0.34375 Z "/>
</g>
<g id="glyph-0-10">
<path d="M 1.890625 1.53125 L 1.890625 1.1875 L 2.015625 1.1875 C 2.148438 1.1875 2.269531 1.164062 2.375 1.125 C 2.476562 1.082031 2.53125 0.972656 2.53125 0.796875 L 2.53125 0.328125 C 2.53125 0.191406 2.535156 0.0546875 2.546875 -0.078125 C 2.554688 -0.222656 2.566406 -0.347656 2.578125 -0.453125 L 2.53125 -0.453125 C 2.445312 -0.304688 2.328125 -0.179688 2.171875 -0.078125 C 2.015625 0.015625 1.816406 0.0625 1.578125 0.0625 C 1.171875 0.0625 0.851562 -0.078125 0.625 -0.359375 C 0.40625 -0.648438 0.296875 -1.101562 0.296875 -1.71875 C 0.296875 -2.332031 0.40625 -2.78125 0.625 -3.0625 C 0.851562 -3.34375 1.175781 -3.484375 1.59375 -3.484375 C 1.84375 -3.484375 2.046875 -3.429688 2.203125 -3.328125 C 2.359375 -3.234375 2.484375 -3.097656 2.578125 -2.921875 L 2.640625 -2.921875 L 2.765625 -3.421875 L 4.0625 -3.421875 L 4.0625 -3.09375 L 4.03125 -3.09375 C 3.9375 -3.09375 3.847656 -3.078125 3.765625 -3.046875 C 3.691406 -3.023438 3.628906 -2.984375 3.578125 -2.921875 C 3.523438 -2.867188 3.5 -2.773438 3.5 -2.640625 L 3.5 0.796875 C 3.5 0.972656 3.550781 1.082031 3.65625 1.125 C 3.757812 1.164062 3.878906 1.1875 4.015625 1.1875 L 4.140625 1.1875 L 4.140625 1.53125 Z M 1.875 -0.40625 C 2.125 -0.40625 2.296875 -0.515625 2.390625 -0.734375 C 2.484375 -0.960938 2.53125 -1.285156 2.53125 -1.703125 C 2.53125 -2.148438 2.484375 -2.476562 2.390625 -2.6875 C 2.296875 -2.90625 2.125 -3.015625 1.875 -3.015625 C 1.65625 -3.015625 1.5 -2.90625 1.40625 -2.6875 C 1.320312 -2.46875 1.28125 -2.144531 1.28125 -1.71875 C 1.28125 -1.289062 1.320312 -0.960938 1.40625 -0.734375 C 1.5 -0.515625 1.65625 -0.40625 1.875 -0.40625 Z "/>
</g>
<g id="glyph-0-11">
<path d="M 1.65625 0.0625 C 1.320312 0.0625 1.0625 -0.0390625 0.875 -0.25 C 0.695312 -0.457031 0.609375 -0.773438 0.609375 -1.203125 L 0.609375 -2.640625 C 0.609375 -2.828125 0.570312 -2.945312 0.5 -3 C 0.4375 -3.0625 0.328125 -3.09375 0.171875 -3.09375 L 0.171875 -3.421875 L 1.578125 -3.421875 L 1.578125 -1.375 C 1.578125 -1.101562 1.613281 -0.882812 1.6875 -0.71875 C 1.757812 -0.5625 1.890625 -0.484375 2.078125 -0.484375 C 2.273438 -0.484375 2.421875 -0.566406 2.515625 -0.734375 C 2.609375 -0.910156 2.65625 -1.148438 2.65625 -1.453125 L 2.65625 -2.671875 C 2.65625 -2.859375 2.609375 -2.972656 2.515625 -3.015625 C 2.421875 -3.066406 2.3125 -3.09375 2.1875 -3.09375 L 2.171875 -3.09375 L 2.171875 -3.421875 L 3.625 -3.421875 L 3.625 -0.734375 C 3.625 -0.554688 3.660156 -0.445312 3.734375 -0.40625 C 3.816406 -0.363281 3.921875 -0.34375 4.046875 -0.34375 L 4.109375 -0.34375 L 4.109375 0 L 2.828125 0 L 2.6875 -0.453125 L 2.65625 -0.453125 C 2.53125 -0.234375 2.378906 -0.09375 2.203125 -0.03125 C 2.035156 0.03125 1.851562 0.0625 1.65625 0.0625 Z "/>
</g>
<g id="glyph-0-12">
<path d="M 1.953125 0.0625 C 1.410156 0.0625 1 -0.0859375 0.71875 -0.390625 C 0.4375 -0.703125 0.296875 -1.132812 0.296875 -1.6875 C 0.296875 -2.289062 0.429688 -2.742188 0.703125 -3.046875 C 0.984375 -3.359375 1.378906 -3.515625 1.890625 -3.515625 C 2.347656 -3.515625 2.707031 -3.382812 2.96875 -3.125 C 3.238281 -2.863281 3.375 -2.476562 3.375 -1.96875 L 3.375 -1.640625 L 1.28125 -1.640625 C 1.289062 -1.210938 1.367188 -0.898438 1.515625 -0.703125 C 1.671875 -0.515625 1.878906 -0.421875 2.140625 -0.421875 C 2.359375 -0.421875 2.546875 -0.46875 2.703125 -0.5625 C 2.859375 -0.664062 2.972656 -0.789062 3.046875 -0.9375 C 3.160156 -0.875 3.21875 -0.769531 3.21875 -0.625 C 3.21875 -0.4375 3.113281 -0.273438 2.90625 -0.140625 C 2.695312 -0.00390625 2.378906 0.0625 1.953125 0.0625 Z M 2.40625 -2.046875 C 2.40625 -2.378906 2.363281 -2.632812 2.28125 -2.8125 C 2.207031 -3 2.078125 -3.09375 1.890625 -3.09375 C 1.710938 -3.09375 1.570312 -3.003906 1.46875 -2.828125 C 1.363281 -2.648438 1.304688 -2.390625 1.296875 -2.046875 Z "/>
</g>
<g id="glyph-0-13">
<path d="M 1.296875 0.0625 C 1.015625 0.0625 0.773438 -0.0195312 0.578125 -0.1875 C 0.378906 -0.363281 0.28125 -0.628906 0.28125 -0.984375 C 0.28125 -1.328125 0.398438 -1.582031 0.640625 -1.75 C 0.878906 -1.914062 1.238281 -2.003906 1.71875 -2.015625 L 2.25 -2.03125 L 2.25 -2.390625 C 2.25 -2.597656 2.222656 -2.769531 2.171875 -2.90625 C 2.128906 -3.050781 2.019531 -3.125 1.84375 -3.125 C 1.6875 -3.125 1.578125 -3.054688 1.515625 -2.921875 C 1.453125 -2.796875 1.421875 -2.628906 1.421875 -2.421875 C 1.128906 -2.421875 0.910156 -2.453125 0.765625 -2.515625 C 0.628906 -2.585938 0.5625 -2.703125 0.5625 -2.859375 C 0.5625 -3.015625 0.617188 -3.140625 0.734375 -3.234375 C 0.847656 -3.328125 1.003906 -3.394531 1.203125 -3.4375 C 1.410156 -3.488281 1.632812 -3.515625 1.875 -3.515625 C 2.320312 -3.515625 2.65625 -3.429688 2.875 -3.265625 C 3.101562 -3.097656 3.21875 -2.816406 3.21875 -2.421875 L 3.21875 -0.796875 C 3.21875 -0.617188 3.242188 -0.5 3.296875 -0.4375 C 3.347656 -0.375 3.445312 -0.34375 3.59375 -0.34375 L 3.625 -0.34375 L 3.625 0 L 2.4375 0 L 2.296875 -0.4375 L 2.25 -0.4375 C 2.15625 -0.320312 2.066406 -0.226562 1.984375 -0.15625 C 1.898438 -0.0820312 1.800781 -0.03125 1.6875 0 C 1.582031 0.0390625 1.453125 0.0625 1.296875 0.0625 Z M 1.640625 -0.40625 C 1.828125 -0.40625 1.972656 -0.476562 2.078125 -0.625 C 2.191406 -0.769531 2.25 -0.96875 2.25 -1.21875 L 2.25 -1.703125 L 1.953125 -1.6875 C 1.703125 -1.664062 1.523438 -1.59375 1.421875 -1.46875 C 1.328125 -1.351562 1.28125 -1.179688 1.28125 -0.953125 C 1.28125 -0.585938 1.398438 -0.40625 1.640625 -0.40625 Z "/>
</g>
<g id="glyph-0-14">
<path d="M 0.125 0 L 0.125 -0.34375 L 0.140625 -0.34375 C 0.285156 -0.34375 0.40625 -0.367188 0.5 -0.421875 C 0.59375 -0.472656 0.640625 -0.597656 0.640625 -0.796875 L 0.640625 -2.65625 C 0.640625 -2.84375 0.597656 -2.960938 0.515625 -3.015625 C 0.429688 -3.066406 0.316406 -3.09375 0.171875 -3.09375 L 0.15625 -3.09375 L 0.15625 -3.421875 L 1.453125 -3.421875 L 1.578125 -2.921875 L 1.609375 -2.921875 C 1.691406 -3.117188 1.796875 -3.265625 1.921875 -3.359375 C 2.054688 -3.453125 2.253906 -3.5 2.515625 -3.5 C 3.003906 -3.5 3.25 -3.328125 3.25 -2.984375 C 3.25 -2.785156 3.175781 -2.628906 3.03125 -2.515625 C 2.882812 -2.410156 2.6875 -2.359375 2.4375 -2.359375 C 2.4375 -2.535156 2.414062 -2.664062 2.375 -2.75 C 2.332031 -2.84375 2.25 -2.890625 2.125 -2.890625 C 2.007812 -2.890625 1.914062 -2.851562 1.84375 -2.78125 C 1.78125 -2.707031 1.734375 -2.613281 1.703125 -2.5 C 1.671875 -2.382812 1.644531 -2.269531 1.625 -2.15625 C 1.613281 -2.039062 1.609375 -1.945312 1.609375 -1.875 L 1.609375 -0.765625 C 1.609375 -0.578125 1.648438 -0.457031 1.734375 -0.40625 C 1.816406 -0.363281 1.925781 -0.34375 2.0625 -0.34375 L 2.265625 -0.34375 L 2.265625 0 Z "/>
</g>
</g>
</defs>
<g fill="rgb(5.882353%, 32.941176%, 27.843137%)" fill-opacity="1">
<use xlink:href="#glyph-0-0" x="30" y="26.830078"/>
<use xlink:href="#glyph-0-1" x="35" y="26.830078"/>
<use xlink:href="#glyph-0-1" x="38" y="26.830078"/>
<use xlink:href="#glyph-0-2" x="41" y="26.830078"/>
<use xlink:href="#glyph-0-3" x="43" y="26.830078"/>
<use xlink:href="#glyph-0-4" x="47" y="26.830078"/>
<use xlink:href="#glyph-0-5" x="51" y="26.830078"/>
<use xlink:href="#glyph-0-6" x="53" y="26.830078"/>
<use xlink:href="#glyph-0-7" x="55" y="26.830078"/>
<use xlink:href="#glyph-0-8" x="59" y="26.830078"/>
<use xlink:href="#glyph-0-9" x="61" y="26.830078"/>
<use xlink:href="#glyph-0-10" x="65" y="26.830078"/>
<use xlink:href="#glyph-0-11" x="69" y="26.830078"/>
<use xlink:href="#glyph-0-12" x="73" y="26.830078"/>
<use xlink:href="#glyph-0-13" x="77" y="26.830078"/>
<use xlink:href="#glyph-0-14" x="81" y="26.830078"/>
</g>
</svg>
