<?xml version="1.0" encoding="UTF-8"?>
<svg xmlns="http://www.w3.org/2000/svg" xmlns:xlink="http://www.w3.org/1999/xlink" width="854" height="480" viewBox="0 0 854 480">
<defs>
<g>
<g id="glyph-0-0">
<path d="M 3.640625 0.09375 C 2.929688 0.09375 2.34375 -0.0351562 1.875 -0.296875 C 1.40625 -0.566406 1.050781 -0.9375 0.8125 -1.40625 C 0.582031 -1.882812 0.46875 -2.441406 0.46875 -3.078125 C 0.46875 -3.703125 0.585938 -4.25 0.828125 -4.71875 C 1.078125 -5.195312 1.441406 -5.566406 1.921875 -5.828125 C 2.398438 -6.097656 2.988281 -6.234375 3.6875 -6.234375 C 4.40625 -6.234375 4.941406 -6.132812 5.296875 -5.9375 C 5.660156 -5.75 5.84375 -5.515625 5.84375 -5.234375 C 5.84375 -5.035156 5.742188 -4.863281 5.546875 -4.71875 C 5.359375 -4.570312 5.082031 -4.5 4.71875 -4.5 C 4.71875 -4.851562 4.628906 -5.140625 4.453125 -5.359375 C 4.285156 -5.578125 4.019531 -5.6875 3.65625 -5.6875 C 3.03125 -5.6875 2.582031 -5.457031 2.3125 -5 C 2.050781 -4.550781 1.921875 -3.910156 1.921875 -3.078125 C 1.921875 -2.242188 2.054688 -1.601562 2.328125 -1.15625 C 2.609375 -0.71875 3.085938 -0.5 3.765625 -0.5 C 3.878906 -0.5 3.988281 -0.503906 4.09375 -0.515625 C 4.195312 -0.523438 4.300781 -0.539062 4.40625 -0.5625 L 4.40625 -1.828125 C 4.40625 -2.054688 4.351562 -2.210938 4.25 -2.296875 C 4.144531 -2.390625 3.988281 -2.4375 3.78125 -2.4375 L 3.671875 -2.4375 L 3.671875 -2.890625 L 6.375 -2.890625 L 6.375 -2.4375 L 6.265625 -2.4375 C 6.085938 -2.4375 5.957031 -2.390625 5.875 -2.296875 C 5.800781 -2.203125 5.765625 -2.035156 5.765625 -1.796875 L 5.765625 -0.375 C 5.429688 -0.21875 5.09375 -0.0976562 4.75 -0.015625 C 4.40625 0.0546875 4.035156 0.09375 3.640625 0.09375 Z "/>
</g>
<g id="glyph-0-1">
<path d="M 1.71875 0.90625 C 1.375 0.90625 1.097656 0.820312 0.890625 0.65625 C 0.679688 0.5 0.53125 0.273438 0.4375 -0.015625 C 0.351562 -0.304688 0.3125 -0.644531 0.3125 -1.03125 C 0.3125 -1.414062 0.351562 -1.75 0.4375 -2.03125 C 0.53125 -2.3125 0.679688 -2.53125 0.890625 -2.6875 C 1.097656 -2.84375 1.378906 -2.921875 1.734375 -2.921875 C 2.222656 -2.921875 2.578125 -2.75 2.796875 -2.40625 C 3.015625 -2.0625 3.125 -1.601562 3.125 -1.03125 C 3.125 -0.445312 3.015625 0.0195312 2.796875 0.375 C 2.578125 0.726562 2.21875 0.90625 1.71875 0.90625 Z M 1.71875 0.515625 C 1.9375 0.515625 2.078125 0.378906 2.140625 0.109375 C 2.203125 -0.148438 2.234375 -0.53125 2.234375 -1.03125 C 2.234375 -1.519531 2.203125 -1.894531 2.140625 -2.15625 C 2.078125 -2.414062 1.941406 -2.546875 1.734375 -2.546875 C 1.515625 -2.546875 1.367188 -2.414062 1.296875 -2.15625 C 1.234375 -1.894531 1.203125 -1.519531 1.203125 -1.03125 C 1.203125 -0.53125 1.234375 -0.148438 1.296875 0.109375 C 1.367188 0.378906 1.507812 0.515625 1.71875 0.515625 Z "/>
</g>
<g id="glyph-0-2">
</g>
<g id="glyph-0-3">
<path d="M 0.546875 -3.609375 L 0.546875 -4.203125 L 4.265625 -4.203125 L 4.265625 -3.609375 Z M 0.546875 -1.9375 L 0.546875 -2.546875 L 4.265625 -2.546875 L 4.265625 -1.9375 Z "/>
</g>
<g id="glyph-0-4">
<path d="M 2.34375 0.09375 C 1.875 0.09375 1.484375 0.0195312 1.171875 -0.125 C 0.859375 -0.28125 0.628906 -0.484375 0.484375 -0.734375 C 0.335938 -0.984375 0.265625 -1.257812 0.265625 -1.5625 C 0.265625 -1.9375 0.378906 -2.238281 0.609375 -2.46875 C 0.835938 -2.707031 1.144531 -2.921875 1.53125 -3.109375 C 1.175781 -3.304688 0.90625 -3.53125 0.71875 -3.78125 C 0.539062 -4.039062 0.453125 -4.335938 0.453125 -4.671875 C 0.453125 -4.941406 0.515625 -5.191406 0.640625 -5.421875 C 0.765625 -5.660156 0.972656 -5.851562 1.265625 -6 C 1.566406 -6.15625 1.960938 -6.234375 2.453125 -6.234375 C 3.054688 -6.234375 3.507812 -6.085938 3.8125 -5.796875 C 4.125 -5.515625 4.28125 -5.15625 4.28125 -4.71875 C 4.28125 -4.375 4.175781 -4.101562 3.96875 -3.90625 C 3.757812 -3.707031 3.476562 -3.515625 3.125 -3.328125 C 3.644531 -3.085938 4.007812 -2.832031 4.21875 -2.5625 C 4.4375 -2.289062 4.546875 -1.976562 4.546875 -1.625 C 4.546875 -1.082031 4.351562 -0.660156 3.96875 -0.359375 C 3.582031 -0.0546875 3.039062 0.09375 2.34375 0.09375 Z M 2.59375 -3.625 C 2.8125 -3.75 2.96875 -3.894531 3.0625 -4.0625 C 3.15625 -4.238281 3.203125 -4.46875 3.203125 -4.75 C 3.203125 -4.914062 3.171875 -5.070312 3.109375 -5.21875 C 3.046875 -5.363281 2.957031 -5.484375 2.84375 -5.578125 C 2.726562 -5.679688 2.582031 -5.734375 2.40625 -5.734375 C 2.164062 -5.734375 1.984375 -5.640625 1.859375 -5.453125 C 1.734375 -5.273438 1.671875 -5.046875 1.671875 -4.765625 C 1.671875 -4.472656 1.75 -4.242188 1.90625 -4.078125 C 2.070312 -3.910156 2.300781 -3.757812 2.59375 -3.625 Z M 2.390625 -0.40625 C 2.679688 -0.40625 2.914062 -0.503906 3.09375 -0.703125 C 3.269531 -0.898438 3.359375 -1.160156 3.359375 -1.484375 C 3.359375 -1.765625 3.257812 -2 3.0625 -2.1875 C 2.863281 -2.375 2.539062 -2.566406 2.09375 -2.765625 C 1.90625 -2.640625 1.742188 -2.476562 1.609375 -2.28125 C 1.484375 -2.082031 1.421875 -1.832031 1.421875 -1.53125 C 1.421875 -1.195312 1.507812 -0.925781 1.6875 -0.71875 C 1.863281 -0.507812 2.097656 -0.40625 2.390625 -0.40625 Z "/>
</g>
<g id="glyph-0-5">
<path d="M 2.09375 -1.234375 L 2.09375 -2.765625 L 0.5625 -2.765625 L 0.5625 -3.390625 L 2.09375 -3.390625 L 2.09375 -4.921875 L 2.71875 -4.921875 L 2.71875 -3.390625 L 4.25 -3.390625 L 4.25 -2.765625 L 2.71875 -2.765625 L 2.71875 -1.234375 Z "/>
</g>
<g id="glyph-0-6">
<path d="M 2.40625 0.09375 C 1.882812 0.09375 1.46875 -0.0351562 1.15625 -0.296875 C 0.851562 -0.566406 0.632812 -0.941406 0.5 -1.421875 C 0.363281 -1.898438 0.296875 -2.457031 0.296875 -3.09375 C 0.296875 -3.726562 0.363281 -4.28125 0.5 -4.75 C 0.632812 -5.21875 0.851562 -5.582031 1.15625 -5.84375 C 1.46875 -6.101562 1.890625 -6.234375 2.421875 -6.234375 C 2.921875 -6.234375 3.320312 -6.101562 3.625 -5.84375 C 3.9375 -5.582031 4.160156 -5.210938 4.296875 -4.734375 C 4.441406 -4.265625 4.515625 -3.710938 4.515625 -3.078125 C 4.515625 -2.441406 4.441406 -1.882812 4.296875 -1.40625 C 4.160156 -0.9375 3.9375 -0.566406 3.625 -0.296875 C 3.3125 -0.0351562 2.90625 0.09375 2.40625 0.09375 Z M 2.40625 -0.46875 C 2.726562 -0.46875 2.9375 -0.695312 3.03125 -1.15625 C 3.132812 -1.613281 3.1875 -2.253906 3.1875 -3.078125 C 3.1875 -3.898438 3.132812 -4.535156 3.03125 -4.984375 C 2.9375 -5.441406 2.734375 -5.671875 2.421875 -5.671875 C 2.097656 -5.671875 1.882812 -5.441406 1.78125 -4.984375 C 1.675781 -4.535156 1.625 -3.898438 1.625 -3.078125 C 1.625 -2.253906 1.675781 -1.613281 1.78125 -1.15625 C 1.882812 -0.695312 2.09375 -0.46875 2.40625 -0.46875 Z "/>
</g>
<g id="glyph-0-7">
<path d="M 0.390625 0.875 C 0.640625 0.78125 0.828125 0.6875 0.953125 0.59375 C 1.078125 0.5 1.140625 0.367188 1.140625 0.203125 C 1.140625 0.128906 1.109375 0.0664062 1.046875 0.015625 C 0.984375 -0.0234375 0.910156 -0.0664062 0.828125 -0.109375 C 0.742188 -0.160156 0.671875 -0.226562 0.609375 -0.3125 C 0.546875 -0.40625 0.515625 -0.539062 0.515625 -0.71875 C 0.515625 -0.90625 0.570312 -1.050781 0.6875 -1.15625 C 0.8125 -1.257812 0.960938 -1.3125 1.140625 -1.3125 C 1.378906 -1.3125 1.566406 -1.222656 1.703125 -1.046875 C 1.847656 -0.878906 1.921875 -0.648438 1.921875 -0.359375 C 1.921875 0.00390625 1.804688 0.335938 1.578125 0.640625 C 1.347656 0.953125 0.953125 1.179688 0.390625 1.328125 Z "/>
</g>
<g id="glyph-0-8">
<path d="M 1.140625 -1.375 L 0.703125 -1.8125 L 1.96875 -3.09375 L 0.703125 -4.359375 L 1.140625 -4.78125 L 2.40625 -3.515625 L 3.671875 -4.796875 L 4.109375 -4.359375 L 2.828125 -3.078125 L 4.109375 -1.8125 L 3.671875 -1.375 L 2.40625 -2.65625 Z "/>
</g>
<g id="glyph-0-9">
<path d="M 2.515625 0.09375 C 2.097656 0.09375 1.726562 -0.0078125 1.40625 -0.21875 C 1.082031 -0.4375 0.832031 -0.757812 0.65625 -1.1875 C 0.476562 -1.625 0.390625 -2.175781 0.390625 -2.84375 C 0.390625 -3.320312 0.4375 -3.765625 0.53125 -4.171875 C 0.632812 -4.578125 0.785156 -4.929688 0.984375 -5.234375 C 1.191406 -5.546875 1.445312 -5.789062 1.75 -5.96875 C 2.0625 -6.144531 2.425781 -6.234375 2.84375 -6.234375 C 3.21875 -6.234375 3.515625 -6.1875 3.734375 -6.09375 C 3.953125 -6.007812 4.109375 -5.894531 4.203125 -5.75 C 4.304688 -5.601562 4.359375 -5.445312 4.359375 -5.28125 C 4.359375 -5.101562 4.28125 -4.945312 4.125 -4.8125 C 3.976562 -4.675781 3.710938 -4.609375 3.328125 -4.609375 C 3.328125 -4.785156 3.3125 -4.957031 3.28125 -5.125 C 3.25 -5.300781 3.191406 -5.441406 3.109375 -5.546875 C 3.035156 -5.660156 2.921875 -5.71875 2.765625 -5.71875 C 2.421875 -5.71875 2.148438 -5.519531 1.953125 -5.125 C 1.753906 -4.738281 1.632812 -4.179688 1.59375 -3.453125 C 1.71875 -3.535156 1.875 -3.609375 2.0625 -3.671875 C 2.25 -3.734375 2.492188 -3.765625 2.796875 -3.765625 C 3.316406 -3.765625 3.734375 -3.609375 4.046875 -3.296875 C 4.359375 -2.984375 4.515625 -2.546875 4.515625 -1.984375 C 4.515625 -1.367188 4.34375 -0.867188 4 -0.484375 C 3.664062 -0.0976562 3.171875 0.09375 2.515625 0.09375 Z M 2.546875 -0.484375 C 2.765625 -0.484375 2.9375 -0.59375 3.0625 -0.8125 C 3.195312 -1.039062 3.265625 -1.40625 3.265625 -1.90625 C 3.265625 -2.363281 3.191406 -2.703125 3.046875 -2.921875 C 2.910156 -3.140625 2.71875 -3.25 2.46875 -3.25 C 2.3125 -3.25 2.144531 -3.203125 1.96875 -3.109375 C 1.800781 -3.023438 1.675781 -2.929688 1.59375 -2.828125 C 1.601562 -2.003906 1.695312 -1.40625 1.875 -1.03125 C 2.0625 -0.664062 2.285156 -0.484375 2.546875 -0.484375 Z "/>
</g>
<g id="glyph-0-10">
<path d="M 0.3125 -3.328125 L 0.3125 -3.953125 L 1.265625 -4.75 C 1.566406 -5 1.765625 -5.234375 1.859375 -5.453125 C 1.960938 -5.671875 2.015625 -5.894531 2.015625 -6.125 C 2.015625 -6.3125 1.984375 -6.457031 1.921875 -6.5625 C 1.859375 -6.664062 1.753906 -6.71875 1.609375 -6.71875 C 1.472656 -6.71875 1.375 -6.671875 1.3125 -6.578125 C 1.25 -6.492188 1.207031 -6.382812 1.1875 -6.25 C 1.164062 -6.125 1.15625 -5.992188 1.15625 -5.859375 C 0.96875 -5.859375 0.789062 -5.898438 0.625 -5.984375 C 0.46875 -6.066406 0.390625 -6.195312 0.390625 -6.375 C 0.390625 -6.582031 0.492188 -6.753906 0.703125 -6.890625 C 0.910156 -7.035156 1.210938 -7.109375 1.609375 -7.109375 C 2.078125 -7.109375 2.414062 -7.023438 2.625 -6.859375 C 2.832031 -6.691406 2.9375 -6.46875 2.9375 -6.1875 C 2.9375 -6.019531 2.898438 -5.859375 2.828125 -5.703125 C 2.765625 -5.554688 2.644531 -5.394531 2.46875 -5.21875 C 2.289062 -5.039062 2.035156 -4.816406 1.703125 -4.546875 L 0.984375 -4 L 2.375 -4 C 2.488281 -4 2.570312 -4.023438 2.625 -4.078125 C 2.675781 -4.140625 2.710938 -4.207031 2.734375 -4.28125 L 2.765625 -4.515625 L 3.09375 -4.515625 L 3.0625 -3.328125 Z "/>
</g>
<g id="glyph-0-11">
<path d="M 0.828125 0 L 0.828125 -0.453125 L 1.546875 -0.453125 C 1.691406 -0.453125 1.796875 -0.492188 1.859375 -0.578125 C 1.929688 -0.660156 1.96875 -0.804688 1.96875 -1.015625 L 1.96875 -5.328125 C 1.75 -5.066406 1.550781 -4.851562 1.375 -4.6875 C 1.207031 -4.519531 1.035156 -4.4375 0.859375 -4.4375 C 0.722656 -4.4375 0.601562 -4.492188 0.5 -4.609375 C 0.40625 -4.722656 0.359375 -4.878906 0.359375 -5.078125 C 0.535156 -5.117188 0.726562 -5.1875 0.9375 -5.28125 C 1.15625 -5.375 1.40625 -5.523438 1.6875 -5.734375 L 2.296875 -6.1875 L 3.25 -6.1875 L 3.25 -1.015625 C 3.25 -0.835938 3.273438 -0.695312 3.328125 -0.59375 C 3.390625 -0.5 3.507812 -0.453125 3.6875 -0.453125 L 4.390625 -0.453125 L 4.390625 0 Z "/>
</g>
<g id="glyph-0-12">
<path d="M 1.078125 0 L 3.359375 -5.203125 L 1.453125 -5.203125 C 1.148438 -5.203125 0.984375 -5.054688 0.953125 -4.765625 L 0.890625 -4.34375 L 0.375 -4.34375 L 0.421875 -6.140625 L 4.53125 -6.140625 L 4.53125 -5.71875 L 2.15625 0 Z "/>
</g>
<g id="glyph-0-13">
<path d="M 1.953125 0.09375 C 1.609375 0.09375 1.332031 0.046875 1.125 -0.046875 C 0.914062 -0.148438 0.765625 -0.273438 0.671875 -0.421875 C 0.585938 -0.566406 0.546875 -0.722656 0.546875 -0.890625 C 0.546875 -1.015625 0.578125 -1.117188 0.640625 -1.203125 C 0.710938 -1.285156 0.820312 -1.34375 0.96875 -1.375 C 1.039062 -1.113281 1.15625 -0.894531 1.3125 -0.71875 C 1.476562 -0.539062 1.707031 -0.453125 2 -0.453125 C 2.738281 -0.453125 3.144531 -1.285156 3.21875 -2.953125 C 3.082031 -2.785156 2.914062 -2.644531 2.71875 -2.53125 C 2.519531 -2.425781 2.273438 -2.375 1.984375 -2.375 C 1.492188 -2.375 1.085938 -2.523438 0.765625 -2.828125 C 0.453125 -3.128906 0.296875 -3.570312 0.296875 -4.15625 C 0.296875 -4.5625 0.375 -4.921875 0.53125 -5.234375 C 0.695312 -5.546875 0.925781 -5.789062 1.21875 -5.96875 C 1.507812 -6.144531 1.859375 -6.234375 2.265625 -6.234375 C 2.691406 -6.234375 3.0625 -6.128906 3.375 -5.921875 C 3.695312 -5.722656 3.953125 -5.410156 4.140625 -4.984375 C 4.328125 -4.566406 4.421875 -4.019531 4.421875 -3.34375 C 4.421875 -2.875 4.375 -2.429688 4.28125 -2.015625 C 4.195312 -1.597656 4.054688 -1.234375 3.859375 -0.921875 C 3.660156 -0.609375 3.40625 -0.359375 3.09375 -0.171875 C 2.78125 0.00390625 2.398438 0.09375 1.953125 0.09375 Z M 2.359375 -2.984375 C 2.554688 -2.984375 2.726562 -3.035156 2.875 -3.140625 C 3.019531 -3.253906 3.132812 -3.394531 3.21875 -3.5625 C 3.207031 -4.300781 3.117188 -4.832031 2.953125 -5.15625 C 2.796875 -5.488281 2.585938 -5.65625 2.328125 -5.65625 C 2.078125 -5.65625 1.882812 -5.53125 1.75 -5.28125 C 1.613281 -5.039062 1.546875 -4.679688 1.546875 -4.203125 C 1.546875 -3.390625 1.816406 -2.984375 2.359375 -2.984375 Z "/>
</g>
<g id="glyph-0-14">
<path d="M 0.296875 0 L 0.296875 -0.890625 L 1.578125 -2.1875 C 1.929688 -2.550781 2.203125 -2.867188 2.390625 -3.140625 C 2.578125 -3.421875 2.707031 -3.6875 2.78125 -3.9375 C 2.863281 -4.1875 2.90625 -4.460938 2.90625 -4.765625 C 2.90625 -5.085938 2.84375 -5.320312 2.71875 -5.46875 C 2.601562 -5.625 2.441406 -5.703125 2.234375 -5.703125 C 1.941406 -5.703125 1.734375 -5.578125 1.609375 -5.328125 C 1.492188 -5.078125 1.4375 -4.707031 1.4375 -4.21875 C 1.113281 -4.21875 0.847656 -4.28125 0.640625 -4.40625 C 0.429688 -4.539062 0.328125 -4.765625 0.328125 -5.078125 C 0.328125 -5.273438 0.394531 -5.460938 0.53125 -5.640625 C 0.675781 -5.828125 0.890625 -5.972656 1.171875 -6.078125 C 1.453125 -6.179688 1.804688 -6.234375 2.234375 -6.234375 C 2.867188 -6.234375 3.351562 -6.101562 3.6875 -5.84375 C 4.03125 -5.59375 4.203125 -5.242188 4.203125 -4.796875 C 4.203125 -4.597656 4.164062 -4.40625 4.09375 -4.21875 C 4.019531 -4.03125 3.898438 -3.820312 3.734375 -3.59375 C 3.566406 -3.375 3.335938 -3.113281 3.046875 -2.8125 C 2.765625 -2.519531 2.410156 -2.171875 1.984375 -1.765625 L 1.125 -0.953125 L 3.125 -0.953125 C 3.488281 -0.953125 3.726562 -1.148438 3.84375 -1.546875 L 3.90625 -1.8125 L 4.421875 -1.8125 L 4.375 0 Z "/>
</g>
</g>
</defs>
<g fill="rgb(5.882353%, 32.941176%, 27.843137%)" fill-opacity="1">
<use xlink:href="#glyph-0-0" x="30" y="29.204102"/>
<use xlink:href="#glyph-0-1" x="37" y="29.204102"/>
<use xlink:href="#glyph-0-2" x="40" y="29.204102"/>
<use xlink:href="#glyph-0-3" x="42" y="29.204102"/>
<use xlink:href="#glyph-0-2" x="47" y="29.204102"/>
<use xlink:href="#glyph-0-4" x="49" y="29.204102"/>
<use xlink:href="#glyph-0-2" x="54" y="29.204102"/>
<use xlink:href="#glyph-0-5" x="56" y="29.204102"/>
<use xlink:href="#glyph-0-2" x="61" y="29.204102"/>
<use xlink:href="#glyph-0-6" x="63" y="29.204102"/>
<use xlink:href="#glyph-0-7" x="68" y="29.204102"/>
<use xlink:href="#glyph-0-4" x="71" y="29.204102"/>
<use xlink:href="#glyph-0-2" x="76" y="29.204102"/>
<use xlink:href="#glyph-0-8" x="78" y="29.204102"/>
<use xlink:href="#glyph-0-2" x="83" y="29.204102"/>
<use xlink:href="#glyph-0-9" x="85" y="29.204102"/>
<use xlink:href="#glyph-0-2" x="90" y="29.204102"/>
<use xlink:href="#glyph-0-5" x="92" y="29.204102"/>
<use xlink:href="#glyph-0-2" x="97" y="29.204102"/>
<use xlink:href="#glyph-0-6" x="99" y="29.204102"/>
<use xlink:href="#glyph-0-7" x="104" y="29.204102"/>
<use xlink:href="#glyph-0-4" x="107" y="29.204102"/>
<use xlink:href="#glyph-0-10" x="112" y="29.204102"/>
<use xlink:href="#glyph-0-2" x="115" y="29.204102"/>
<use xlink:href="#glyph-0-8" x="117" y="29.204102"/>
<use xlink:href="#glyph-0-2" x="122" y="29.204102"/>
<use xlink:href="#glyph-0-4" x="124" y="29.204102"/>
<use xlink:href="#glyph-0-2" x="129" y="29.204102"/>
<use xlink:href="#glyph-0-3" x="131" y="29.204102"/>
<use xlink:href="#glyph-0-2" x="136" y="29.204102"/>
<use xlink:href="#glyph-0-11" x="138" y="29.204102"/>
<use xlink:href="#glyph-0-12" x="143" y="29.204102"/>
<use xlink:href="#glyph-0-7" x="148" y="29.204102"/>
<use xlink:href="#glyph-0-13" x="151" y="29.204102"/>
<use xlink:href="#glyph-0-14" x="156" y="29.204102"/>
</g>
</svg>
