<?xml version="1.0" encoding="UTF-8"?>
<svg xmlns="http://www.w3.org/2000/svg" xmlns:xlink="http://www.w3.org/1999/xlink" width="854" height="480" viewBox="0 0 854 480">
<defs>
<g>
<g id="glyph-0-0">
<path d="M 0.140625 0 L 0.140625 -0.28125 L 0.375 -0.28125 C 0.445312 -0.28125 0.507812 -0.296875 0.5625 -0.328125 C 0.613281 -0.367188 0.640625 -0.46875 0.640625 -0.625 L 0.640625 -3.171875 C 0.640625 -3.304688 0.613281 -3.390625 0.5625 -3.421875 C 0.507812 -3.460938 0.445312 -3.484375 0.375 -3.484375 L 0.140625 -3.484375 L 0.140625 -3.765625 L 1.765625 -3.765625 C 2.253906 -3.765625 2.617188 -3.664062 2.859375 -3.46875 C 3.097656 -3.269531 3.21875 -3 3.21875 -2.65625 C 3.21875 -2.4375 3.164062 -2.234375 3.0625 -2.046875 C 2.957031 -1.867188 2.789062 -1.722656 2.5625 -1.609375 C 2.332031 -1.492188 2.03125 -1.4375 1.65625 -1.4375 L 1.46875 -1.4375 L 1.46875 -0.59375 C 1.46875 -0.457031 1.492188 -0.367188 1.546875 -0.328125 C 1.609375 -0.296875 1.675781 -0.28125 1.75 -0.28125 L 2.078125 -0.28125 L 2.078125 0 Z M 1.59375 -1.75 C 1.851562 -1.75 2.039062 -1.816406 2.15625 -1.953125 C 2.269531 -2.085938 2.328125 -2.3125 2.328125 -2.625 C 2.328125 -2.90625 2.273438 -3.113281 2.171875 -3.25 C 2.078125 -3.382812 1.910156 -3.453125 1.671875 -3.453125 L 1.46875 -3.453125 L 1.46875 -1.75 Z "/>
</g>
<g id="glyph-0-1">
<path d="M 1.0625 0.046875 C 0.832031 0.046875 0.632812 -0.0195312 0.46875 -0.15625 C 0.3125 -0.300781 0.234375 -0.519531 0.234375 -0.8125 C 0.234375 -1.09375 0.332031 -1.300781 0.53125 -1.4375 C 0.726562 -1.570312 1.023438 -1.648438 1.421875 -1.671875 L 1.859375 -1.6875 L 1.859375 -1.96875 C 1.859375 -2.144531 1.835938 -2.289062 1.796875 -2.40625 C 1.765625 -2.519531 1.675781 -2.578125 1.53125 -2.578125 C 1.394531 -2.578125 1.300781 -2.519531 1.25 -2.40625 C 1.195312 -2.300781 1.171875 -2.164062 1.171875 -2 C 0.929688 -2 0.75 -2.023438 0.625 -2.078125 C 0.507812 -2.140625 0.453125 -2.234375 0.453125 -2.359375 C 0.453125 -2.492188 0.5 -2.597656 0.59375 -2.671875 C 0.695312 -2.742188 0.832031 -2.800781 1 -2.84375 C 1.164062 -2.882812 1.347656 -2.90625 1.546875 -2.90625 C 1.921875 -2.90625 2.195312 -2.835938 2.375 -2.703125 C 2.5625 -2.566406 2.65625 -2.332031 2.65625 -2 L 2.65625 -0.65625 C 2.65625 -0.507812 2.675781 -0.410156 2.71875 -0.359375 C 2.769531 -0.304688 2.851562 -0.28125 2.96875 -0.28125 L 3 -0.28125 L 3 0 L 2.015625 0 L 1.90625 -0.359375 L 1.859375 -0.359375 C 1.773438 -0.265625 1.695312 -0.1875 1.625 -0.125 C 1.5625 -0.0625 1.484375 -0.0195312 1.390625 0 C 1.304688 0.03125 1.195312 0.046875 1.0625 0.046875 Z M 1.359375 -0.328125 C 1.503906 -0.328125 1.625 -0.390625 1.71875 -0.515625 C 1.8125 -0.640625 1.859375 -0.804688 1.859375 -1.015625 L 1.859375 -1.40625 L 1.609375 -1.390625 C 1.398438 -1.378906 1.253906 -1.320312 1.171875 -1.21875 C 1.097656 -1.125 1.0625 -0.976562 1.0625 -0.78125 C 1.0625 -0.476562 1.160156 -0.328125 1.359375 -0.328125 Z "/>
</g>
<g id="glyph-0-2">
<path d="M 1.21875 0.046875 C 0.832031 0.046875 0.554688 -0.0078125 0.390625 -0.125 C 0.234375 -0.238281 0.15625 -0.382812 0.15625 -0.5625 C 0.15625 -0.675781 0.179688 -0.757812 0.234375 -0.8125 C 0.296875 -0.875 0.363281 -0.914062 0.4375 -0.9375 C 0.519531 -0.957031 0.59375 -0.96875 0.65625 -0.96875 C 0.65625 -0.75 0.707031 -0.578125 0.8125 -0.453125 C 0.914062 -0.328125 1.050781 -0.265625 1.21875 -0.265625 C 1.40625 -0.265625 1.539062 -0.296875 1.625 -0.359375 C 1.707031 -0.429688 1.75 -0.519531 1.75 -0.625 C 1.75 -0.738281 1.703125 -0.832031 1.609375 -0.90625 C 1.515625 -0.976562 1.34375 -1.054688 1.09375 -1.140625 C 0.8125 -1.242188 0.59375 -1.363281 0.4375 -1.5 C 0.289062 -1.632812 0.21875 -1.816406 0.21875 -2.046875 C 0.21875 -2.335938 0.316406 -2.550781 0.515625 -2.6875 C 0.722656 -2.820312 1 -2.890625 1.34375 -2.890625 C 1.5625 -2.890625 1.738281 -2.863281 1.875 -2.8125 C 2.019531 -2.769531 2.117188 -2.710938 2.171875 -2.640625 C 2.234375 -2.566406 2.265625 -2.488281 2.265625 -2.40625 C 2.265625 -2.28125 2.222656 -2.1875 2.140625 -2.125 C 2.054688 -2.0625 1.921875 -2.03125 1.734375 -2.03125 C 1.734375 -2.207031 1.691406 -2.34375 1.609375 -2.4375 C 1.535156 -2.539062 1.421875 -2.59375 1.265625 -2.59375 C 1.148438 -2.59375 1.050781 -2.5625 0.96875 -2.5 C 0.882812 -2.445312 0.84375 -2.367188 0.84375 -2.265625 C 0.84375 -2.191406 0.863281 -2.125 0.90625 -2.0625 C 0.945312 -2.007812 1.019531 -1.957031 1.125 -1.90625 C 1.226562 -1.851562 1.375 -1.796875 1.5625 -1.734375 C 1.800781 -1.648438 1.992188 -1.539062 2.140625 -1.40625 C 2.285156 -1.269531 2.359375 -1.09375 2.359375 -0.875 C 2.359375 -0.582031 2.257812 -0.351562 2.0625 -0.1875 C 1.863281 -0.03125 1.582031 0.046875 1.21875 0.046875 Z "/>
</g>
<g id="glyph-0-3">
<path d="M 1.609375 0.046875 C 1.191406 0.046875 0.859375 -0.0703125 0.609375 -0.3125 C 0.367188 -0.5625 0.25 -0.929688 0.25 -1.421875 C 0.25 -1.921875 0.363281 -2.289062 0.59375 -2.53125 C 0.832031 -2.78125 1.175781 -2.90625 1.625 -2.90625 C 2.050781 -2.90625 2.382812 -2.78125 2.625 -2.53125 C 2.863281 -2.289062 2.984375 -1.921875 2.984375 -1.421875 C 2.984375 -0.929688 2.863281 -0.5625 2.625 -0.3125 C 2.394531 -0.0703125 2.054688 0.046875 1.609375 0.046875 Z M 1.625 -0.28125 C 1.820312 -0.28125 1.960938 -0.375 2.046875 -0.5625 C 2.128906 -0.757812 2.171875 -1.046875 2.171875 -1.421875 C 2.171875 -1.796875 2.128906 -2.078125 2.046875 -2.265625 C 1.960938 -2.460938 1.816406 -2.5625 1.609375 -2.5625 C 1.410156 -2.5625 1.269531 -2.460938 1.1875 -2.265625 C 1.101562 -2.078125 1.0625 -1.796875 1.0625 -1.421875 C 1.0625 -1.046875 1.101562 -0.757812 1.1875 -0.5625 C 1.269531 -0.375 1.414062 -0.28125 1.625 -0.28125 Z "/>
</g>
<g id="glyph-0-4">
</g>
<g id="glyph-0-5">
<path d="M 0.515625 0 L 0.515625 -0.28125 L 0.953125 -0.28125 C 1.035156 -0.28125 1.097656 -0.300781 1.140625 -0.34375 C 1.179688 -0.394531 1.203125 -0.488281 1.203125 -0.625 L 1.203125 -3.265625 C 1.078125 -3.109375 0.957031 -2.976562 0.84375 -2.875 C 0.738281 -2.769531 0.632812 -2.71875 0.53125 -2.71875 C 0.445312 -2.71875 0.375 -2.753906 0.3125 -2.828125 C 0.25 -2.898438 0.21875 -2.992188 0.21875 -3.109375 C 0.320312 -3.140625 0.441406 -3.179688 0.578125 -3.234375 C 0.710938 -3.296875 0.863281 -3.390625 1.03125 -3.515625 L 1.40625 -3.796875 L 2 -3.796875 L 2 -0.625 C 2 -0.507812 2.015625 -0.421875 2.046875 -0.359375 C 2.085938 -0.304688 2.160156 -0.28125 2.265625 -0.28125 L 2.6875 -0.28125 L 2.6875 0 Z "/>
</g>
</g>
</defs>
<g fill="rgb(9.019608%, 41.960784%, 35.686275%)" fill-opacity="1">
<use xlink:href="#glyph-0-0" x="30" y="25.641602"/>
<use xlink:href="#glyph-0-1" x="33" y="25.641602"/>
<use xlink:href="#glyph-0-2" x="36" y="25.641602"/>
<use xlink:href="#glyph-0-3" x="39" y="25.641602"/>
<use xlink:href="#glyph-0-4" x="42" y="25.641602"/>
<use xlink:href="#glyph-0-5" x="43" y="25.641602"/>
</g>
</svg>
